<mxfile host="app.diagrams.net" agent="Mozilla/5.0 (Windows NT 10.0; Win64; x64) AppleWebKit/537.36 (KHTML, like Gecko) Chrome/129.0.0.0 Safari/537.36 Edg/129.0.0.0" version="24.7.17">
  <diagram name="Сторінка-1" id="78tKvKXT3mnq6IiCleTb">
    <mxGraphModel dx="1042" dy="614" grid="1" gridSize="10" guides="1" tooltips="1" connect="1" arrows="1" fold="1" page="1" pageScale="1" pageWidth="827" pageHeight="1169" math="0" shadow="0">
      <root>
        <mxCell id="0" />
        <mxCell id="1" parent="0" />
        <mxCell id="IiAVttIHHP6NnZC_l2i--1" value="employee" style="rounded=0;whiteSpace=wrap;html=1;" vertex="1" parent="1">
          <mxGeometry x="200" y="137.5" width="100" height="30" as="geometry" />
        </mxCell>
        <mxCell id="IiAVttIHHP6NnZC_l2i--3" value="customer" style="rounded=0;whiteSpace=wrap;html=1;" vertex="1" parent="1">
          <mxGeometry x="560" y="650" width="100" height="30" as="geometry" />
        </mxCell>
        <mxCell id="IiAVttIHHP6NnZC_l2i--4" value="product" style="rounded=0;whiteSpace=wrap;html=1;" vertex="1" parent="1">
          <mxGeometry x="180" y="687.5" width="100" height="30" as="geometry" />
        </mxCell>
        <mxCell id="IiAVttIHHP6NnZC_l2i--5" value="orders" style="rounded=0;whiteSpace=wrap;html=1;" vertex="1" parent="1">
          <mxGeometry x="388" y="370" width="100" height="30" as="geometry" />
        </mxCell>
        <mxCell id="IiAVttIHHP6NnZC_l2i--6" value="department" style="rounded=0;whiteSpace=wrap;html=1;" vertex="1" parent="1">
          <mxGeometry x="560" y="137.5" width="100" height="30" as="geometry" />
        </mxCell>
        <mxCell id="IiAVttIHHP6NnZC_l2i--7" value="product_name" style="ellipse;whiteSpace=wrap;html=1;" vertex="1" parent="1">
          <mxGeometry x="30" y="597.5" width="100" height="50" as="geometry" />
        </mxCell>
        <mxCell id="IiAVttIHHP6NnZC_l2i--8" value="manufacturer" style="ellipse;whiteSpace=wrap;html=1;" vertex="1" parent="1">
          <mxGeometry x="120" y="837.5" width="100" height="50" as="geometry" />
        </mxCell>
        <mxCell id="IiAVttIHHP6NnZC_l2i--9" value="product_type" style="ellipse;whiteSpace=wrap;html=1;" vertex="1" parent="1">
          <mxGeometry x="260" y="850" width="100" height="50" as="geometry" />
        </mxCell>
        <mxCell id="IiAVttIHHP6NnZC_l2i--10" value="product_id" style="ellipse;whiteSpace=wrap;html=1;" vertex="1" parent="1">
          <mxGeometry x="120" y="547.5" width="100" height="50" as="geometry" />
        </mxCell>
        <mxCell id="IiAVttIHHP6NnZC_l2i--11" value="price" style="ellipse;whiteSpace=wrap;html=1;" vertex="1" parent="1">
          <mxGeometry x="30" y="777.5" width="100" height="50" as="geometry" />
        </mxCell>
        <mxCell id="IiAVttIHHP6NnZC_l2i--12" value="category" style="ellipse;whiteSpace=wrap;html=1;" vertex="1" parent="1">
          <mxGeometry x="10" y="687.5" width="100" height="50" as="geometry" />
        </mxCell>
        <mxCell id="IiAVttIHHP6NnZC_l2i--14" value="amount" style="ellipse;whiteSpace=wrap;html=1;" vertex="1" parent="1">
          <mxGeometry x="240" y="547.5" width="100" height="50" as="geometry" />
        </mxCell>
        <mxCell id="IiAVttIHHP6NnZC_l2i--15" value="product_description" style="ellipse;whiteSpace=wrap;html=1;" vertex="1" parent="1">
          <mxGeometry x="344" y="800" width="116" height="50" as="geometry" />
        </mxCell>
        <mxCell id="IiAVttIHHP6NnZC_l2i--16" value="phone_number" style="ellipse;whiteSpace=wrap;html=1;" vertex="1" parent="1">
          <mxGeometry x="700" y="740" width="100" height="50" as="geometry" />
        </mxCell>
        <mxCell id="IiAVttIHHP6NnZC_l2i--17" value="gender" style="ellipse;whiteSpace=wrap;html=1;" vertex="1" parent="1">
          <mxGeometry x="710" y="660" width="100" height="50" as="geometry" />
        </mxCell>
        <mxCell id="IiAVttIHHP6NnZC_l2i--18" value="last_name" style="ellipse;whiteSpace=wrap;html=1;" vertex="1" parent="1">
          <mxGeometry x="690" y="585" width="100" height="50" as="geometry" />
        </mxCell>
        <mxCell id="IiAVttIHHP6NnZC_l2i--19" value="customer_id" style="ellipse;whiteSpace=wrap;html=1;" vertex="1" parent="1">
          <mxGeometry x="490" y="510" width="100" height="50" as="geometry" />
        </mxCell>
        <mxCell id="IiAVttIHHP6NnZC_l2i--20" value="first_name" style="ellipse;whiteSpace=wrap;html=1;" vertex="1" parent="1">
          <mxGeometry x="620" y="520" width="100" height="50" as="geometry" />
        </mxCell>
        <mxCell id="IiAVttIHHP6NnZC_l2i--21" value="email" style="ellipse;whiteSpace=wrap;html=1;" vertex="1" parent="1">
          <mxGeometry x="640" y="810" width="100" height="50" as="geometry" />
        </mxCell>
        <mxCell id="IiAVttIHHP6NnZC_l2i--22" value="discount" style="ellipse;whiteSpace=wrap;html=1;dashed=1;" vertex="1" parent="1">
          <mxGeometry x="520" y="790" width="100" height="50" as="geometry" />
        </mxCell>
        <mxCell id="IiAVttIHHP6NnZC_l2i--23" value="first_name" style="ellipse;whiteSpace=wrap;html=1;" vertex="1" parent="1">
          <mxGeometry x="10" y="140" width="100" height="50" as="geometry" />
        </mxCell>
        <mxCell id="IiAVttIHHP6NnZC_l2i--24" value="position" style="ellipse;whiteSpace=wrap;html=1;" vertex="1" parent="1">
          <mxGeometry x="130" y="390" width="100" height="50" as="geometry" />
        </mxCell>
        <mxCell id="IiAVttIHHP6NnZC_l2i--25" value="employee_id" style="ellipse;whiteSpace=wrap;html=1;" vertex="1" parent="1">
          <mxGeometry x="20" y="80" width="100" height="50" as="geometry" />
        </mxCell>
        <mxCell id="IiAVttIHHP6NnZC_l2i--26" value="salary" style="ellipse;whiteSpace=wrap;html=1;" vertex="1" parent="1">
          <mxGeometry x="40" y="10" width="100" height="50" as="geometry" />
        </mxCell>
        <mxCell id="IiAVttIHHP6NnZC_l2i--27" value="manager_id" style="ellipse;whiteSpace=wrap;html=1;dashed=1;" vertex="1" parent="1">
          <mxGeometry x="50" y="330" width="100" height="50" as="geometry" />
        </mxCell>
        <mxCell id="IiAVttIHHP6NnZC_l2i--28" value="department_id" style="ellipse;whiteSpace=wrap;html=1;dashed=1;" vertex="1" parent="1">
          <mxGeometry x="210" y="330" width="100" height="50" as="geometry" />
        </mxCell>
        <mxCell id="IiAVttIHHP6NnZC_l2i--29" value="employee_name" style="ellipse;whiteSpace=wrap;html=1;" vertex="1" parent="1">
          <mxGeometry x="150" y="10" width="100" height="50" as="geometry" />
        </mxCell>
        <mxCell id="IiAVttIHHP6NnZC_l2i--30" value="rate" style="ellipse;whiteSpace=wrap;html=1;" vertex="1" parent="1">
          <mxGeometry x="10" y="270" width="100" height="50" as="geometry" />
        </mxCell>
        <mxCell id="IiAVttIHHP6NnZC_l2i--31" value="last_name" style="ellipse;whiteSpace=wrap;html=1;" vertex="1" parent="1">
          <mxGeometry x="10" y="210" width="100" height="50" as="geometry" />
        </mxCell>
        <mxCell id="IiAVttIHHP6NnZC_l2i--32" value="bonus" style="ellipse;whiteSpace=wrap;html=1;dashed=1;" vertex="1" parent="1">
          <mxGeometry x="260" y="270" width="100" height="50" as="geometry" />
        </mxCell>
        <mxCell id="IiAVttIHHP6NnZC_l2i--33" value="department_id" style="ellipse;whiteSpace=wrap;html=1;" vertex="1" parent="1">
          <mxGeometry x="610" y="20" width="100" height="50" as="geometry" />
        </mxCell>
        <mxCell id="IiAVttIHHP6NnZC_l2i--34" value="department_name" style="ellipse;whiteSpace=wrap;html=1;" vertex="1" parent="1">
          <mxGeometry x="700" y="60" width="100" height="50" as="geometry" />
        </mxCell>
        <mxCell id="IiAVttIHHP6NnZC_l2i--35" value="location" style="ellipse;whiteSpace=wrap;html=1;" vertex="1" parent="1">
          <mxGeometry x="720" y="132.5" width="100" height="40" as="geometry" />
        </mxCell>
        <mxCell id="IiAVttIHHP6NnZC_l2i--36" value="manages" style="rhombus;whiteSpace=wrap;html=1;" vertex="1" parent="1">
          <mxGeometry x="310" width="116" height="45" as="geometry" />
        </mxCell>
        <mxCell id="IiAVttIHHP6NnZC_l2i--37" value="sells" style="rhombus;whiteSpace=wrap;html=1;" vertex="1" parent="1">
          <mxGeometry x="260" y="460" width="116" height="45" as="geometry" />
        </mxCell>
        <mxCell id="IiAVttIHHP6NnZC_l2i--38" value="buys" style="rhombus;whiteSpace=wrap;html=1;" vertex="1" parent="1">
          <mxGeometry x="460" y="440" width="116" height="45" as="geometry" />
        </mxCell>
        <mxCell id="IiAVttIHHP6NnZC_l2i--39" value="works_for" style="rhombus;whiteSpace=wrap;html=1;" vertex="1" parent="1">
          <mxGeometry x="380" y="130" width="116" height="45" as="geometry" />
        </mxCell>
        <mxCell id="IiAVttIHHP6NnZC_l2i--40" value="places" style="rhombus;whiteSpace=wrap;html=1;" vertex="1" parent="1">
          <mxGeometry x="380" y="230" width="116" height="45" as="geometry" />
        </mxCell>
        <mxCell id="IiAVttIHHP6NnZC_l2i--48" value="" style="endArrow=none;html=1;rounded=0;exitX=0.5;exitY=0;exitDx=0;exitDy=0;entryX=0;entryY=0.5;entryDx=0;entryDy=0;startArrow=ERzeroToMany;startFill=0;" edge="1" parent="1" source="IiAVttIHHP6NnZC_l2i--1" target="IiAVttIHHP6NnZC_l2i--36">
          <mxGeometry width="50" height="50" relative="1" as="geometry">
            <mxPoint x="390" y="310" as="sourcePoint" />
            <mxPoint x="440" y="260" as="targetPoint" />
            <Array as="points">
              <mxPoint x="250" y="90" />
            </Array>
          </mxGeometry>
        </mxCell>
        <mxCell id="IiAVttIHHP6NnZC_l2i--49" value="" style="endArrow=none;html=1;rounded=0;exitX=1;exitY=0;exitDx=0;exitDy=0;entryX=1;entryY=1;entryDx=0;entryDy=0;startArrow=ERzeroToOne;startFill=0;" edge="1" parent="1" source="IiAVttIHHP6NnZC_l2i--1" target="IiAVttIHHP6NnZC_l2i--36">
          <mxGeometry width="50" height="50" relative="1" as="geometry">
            <mxPoint x="240" y="170" as="sourcePoint" />
            <mxPoint x="260" y="103" as="targetPoint" />
            <Array as="points" />
          </mxGeometry>
        </mxCell>
        <mxCell id="IiAVttIHHP6NnZC_l2i--50" value="" style="endArrow=none;html=1;rounded=0;exitX=0.25;exitY=0;exitDx=0;exitDy=0;" edge="1" parent="1" source="IiAVttIHHP6NnZC_l2i--1">
          <mxGeometry width="50" height="50" relative="1" as="geometry">
            <mxPoint x="150" y="110" as="sourcePoint" />
            <mxPoint x="200" y="60" as="targetPoint" />
          </mxGeometry>
        </mxCell>
        <mxCell id="IiAVttIHHP6NnZC_l2i--51" value="" style="endArrow=none;html=1;rounded=0;entryX=1;entryY=0.5;entryDx=0;entryDy=0;exitX=0;exitY=0.25;exitDx=0;exitDy=0;" edge="1" parent="1" source="IiAVttIHHP6NnZC_l2i--1" target="IiAVttIHHP6NnZC_l2i--23">
          <mxGeometry width="50" height="50" relative="1" as="geometry">
            <mxPoint x="180" y="160" as="sourcePoint" />
            <mxPoint x="210" y="70" as="targetPoint" />
          </mxGeometry>
        </mxCell>
        <mxCell id="IiAVttIHHP6NnZC_l2i--52" value="" style="endArrow=none;html=1;rounded=0;exitX=0;exitY=0.5;exitDx=0;exitDy=0;entryX=1;entryY=0.5;entryDx=0;entryDy=0;" edge="1" parent="1" source="IiAVttIHHP6NnZC_l2i--1" target="IiAVttIHHP6NnZC_l2i--31">
          <mxGeometry width="50" height="50" relative="1" as="geometry">
            <mxPoint x="225" y="180" as="sourcePoint" />
            <mxPoint x="220" y="80" as="targetPoint" />
          </mxGeometry>
        </mxCell>
        <mxCell id="IiAVttIHHP6NnZC_l2i--53" value="" style="endArrow=none;html=1;rounded=0;exitX=1.016;exitY=0.324;exitDx=0;exitDy=0;exitPerimeter=0;entryX=0;entryY=1;entryDx=0;entryDy=0;" edge="1" parent="1" source="IiAVttIHHP6NnZC_l2i--30" target="IiAVttIHHP6NnZC_l2i--1">
          <mxGeometry width="50" height="50" relative="1" as="geometry">
            <mxPoint x="195" y="290" as="sourcePoint" />
            <mxPoint x="190" y="190" as="targetPoint" />
          </mxGeometry>
        </mxCell>
        <mxCell id="IiAVttIHHP6NnZC_l2i--54" value="" style="endArrow=none;html=1;rounded=0;exitX=0;exitY=0;exitDx=0;exitDy=0;entryX=1;entryY=0.5;entryDx=0;entryDy=0;" edge="1" parent="1" source="IiAVttIHHP6NnZC_l2i--1" target="IiAVttIHHP6NnZC_l2i--25">
          <mxGeometry width="50" height="50" relative="1" as="geometry">
            <mxPoint x="245" y="202.5" as="sourcePoint" />
            <mxPoint x="240" y="102.5" as="targetPoint" />
          </mxGeometry>
        </mxCell>
        <mxCell id="IiAVttIHHP6NnZC_l2i--55" value="" style="endArrow=none;html=1;rounded=0;exitX=0.108;exitY=-0.003;exitDx=0;exitDy=0;entryX=1;entryY=1;entryDx=0;entryDy=0;exitPerimeter=0;" edge="1" parent="1" source="IiAVttIHHP6NnZC_l2i--1" target="IiAVttIHHP6NnZC_l2i--26">
          <mxGeometry width="50" height="50" relative="1" as="geometry">
            <mxPoint x="255" y="210" as="sourcePoint" />
            <mxPoint x="250" y="110" as="targetPoint" />
          </mxGeometry>
        </mxCell>
        <mxCell id="IiAVttIHHP6NnZC_l2i--56" value="" style="endArrow=none;html=1;rounded=0;exitX=0.712;exitY=-0.012;exitDx=0;exitDy=0;exitPerimeter=0;entryX=0.25;entryY=1;entryDx=0;entryDy=0;" edge="1" parent="1" source="IiAVttIHHP6NnZC_l2i--27" target="IiAVttIHHP6NnZC_l2i--1">
          <mxGeometry width="50" height="50" relative="1" as="geometry">
            <mxPoint x="122" y="296" as="sourcePoint" />
            <mxPoint x="200" y="200" as="targetPoint" />
          </mxGeometry>
        </mxCell>
        <mxCell id="IiAVttIHHP6NnZC_l2i--57" value="" style="endArrow=none;html=1;rounded=0;exitX=0.5;exitY=0;exitDx=0;exitDy=0;entryX=0.364;entryY=1.007;entryDx=0;entryDy=0;entryPerimeter=0;" edge="1" parent="1" source="IiAVttIHHP6NnZC_l2i--24" target="IiAVttIHHP6NnZC_l2i--1">
          <mxGeometry width="50" height="50" relative="1" as="geometry">
            <mxPoint x="132" y="306" as="sourcePoint" />
            <mxPoint x="210" y="210" as="targetPoint" />
          </mxGeometry>
        </mxCell>
        <mxCell id="IiAVttIHHP6NnZC_l2i--58" value="" style="endArrow=none;html=1;rounded=0;exitX=0.4;exitY=0;exitDx=0;exitDy=0;entryX=0.5;entryY=1;entryDx=0;entryDy=0;exitPerimeter=0;" edge="1" parent="1" source="IiAVttIHHP6NnZC_l2i--28" target="IiAVttIHHP6NnZC_l2i--1">
          <mxGeometry width="50" height="50" relative="1" as="geometry">
            <mxPoint x="190" y="400" as="sourcePoint" />
            <mxPoint x="226" y="200" as="targetPoint" />
          </mxGeometry>
        </mxCell>
        <mxCell id="IiAVttIHHP6NnZC_l2i--59" value="" style="endArrow=none;html=1;rounded=0;entryX=0.75;entryY=1;entryDx=0;entryDy=0;" edge="1" parent="1" source="IiAVttIHHP6NnZC_l2i--32" target="IiAVttIHHP6NnZC_l2i--1">
          <mxGeometry width="50" height="50" relative="1" as="geometry">
            <mxPoint x="200" y="410" as="sourcePoint" />
            <mxPoint x="236" y="210" as="targetPoint" />
          </mxGeometry>
        </mxCell>
        <mxCell id="IiAVttIHHP6NnZC_l2i--60" value="" style="endArrow=none;html=1;rounded=0;entryX=0.75;entryY=0;entryDx=0;entryDy=0;" edge="1" parent="1" source="IiAVttIHHP6NnZC_l2i--34" target="IiAVttIHHP6NnZC_l2i--6">
          <mxGeometry width="50" height="50" relative="1" as="geometry">
            <mxPoint x="690" y="190" as="sourcePoint" />
            <mxPoint x="666" y="139" as="targetPoint" />
          </mxGeometry>
        </mxCell>
        <mxCell id="IiAVttIHHP6NnZC_l2i--61" value="" style="endArrow=none;html=1;rounded=0;entryX=0.32;entryY=1.02;entryDx=0;entryDy=0;exitX=0.5;exitY=0;exitDx=0;exitDy=0;entryPerimeter=0;" edge="1" parent="1" source="IiAVttIHHP6NnZC_l2i--6" target="IiAVttIHHP6NnZC_l2i--33">
          <mxGeometry width="50" height="50" relative="1" as="geometry">
            <mxPoint x="299" y="261" as="sourcePoint" />
            <mxPoint x="275" y="210" as="targetPoint" />
          </mxGeometry>
        </mxCell>
        <mxCell id="IiAVttIHHP6NnZC_l2i--62" value="" style="endArrow=none;html=1;rounded=0;entryX=1;entryY=0.75;entryDx=0;entryDy=0;exitX=0;exitY=0.5;exitDx=0;exitDy=0;" edge="1" parent="1" source="IiAVttIHHP6NnZC_l2i--35" target="IiAVttIHHP6NnZC_l2i--6">
          <mxGeometry width="50" height="50" relative="1" as="geometry">
            <mxPoint x="721" y="140" as="sourcePoint" />
            <mxPoint x="645" y="170" as="targetPoint" />
          </mxGeometry>
        </mxCell>
        <mxCell id="IiAVttIHHP6NnZC_l2i--63" value="" style="endArrow=none;html=1;rounded=0;exitX=1;exitY=0.5;exitDx=0;exitDy=0;entryX=0;entryY=0.5;entryDx=0;entryDy=0;startArrow=ERzeroToMany;startFill=0;" edge="1" parent="1" source="IiAVttIHHP6NnZC_l2i--1" target="IiAVttIHHP6NnZC_l2i--39">
          <mxGeometry width="50" height="50" relative="1" as="geometry">
            <mxPoint x="390" y="310" as="sourcePoint" />
            <mxPoint x="440" y="260" as="targetPoint" />
          </mxGeometry>
        </mxCell>
        <mxCell id="IiAVttIHHP6NnZC_l2i--64" value="" style="endArrow=none;html=1;rounded=0;exitX=0;exitY=0.5;exitDx=0;exitDy=0;entryX=0.948;entryY=0.484;entryDx=0;entryDy=0;entryPerimeter=0;startArrow=ERzeroToOne;startFill=0;" edge="1" parent="1" source="IiAVttIHHP6NnZC_l2i--6" target="IiAVttIHHP6NnZC_l2i--39">
          <mxGeometry width="50" height="50" relative="1" as="geometry">
            <mxPoint x="446" y="200" as="sourcePoint" />
            <mxPoint x="500" y="170" as="targetPoint" />
          </mxGeometry>
        </mxCell>
        <mxCell id="IiAVttIHHP6NnZC_l2i--65" value="" style="endArrow=none;html=1;rounded=0;exitX=1;exitY=1;exitDx=0;exitDy=0;entryX=0;entryY=0.5;entryDx=0;entryDy=0;startArrow=ERmandOne;startFill=0;" edge="1" parent="1" source="IiAVttIHHP6NnZC_l2i--1" target="IiAVttIHHP6NnZC_l2i--40">
          <mxGeometry width="50" height="50" relative="1" as="geometry">
            <mxPoint x="230" y="310" as="sourcePoint" />
            <mxPoint x="280" y="260" as="targetPoint" />
          </mxGeometry>
        </mxCell>
        <mxCell id="IiAVttIHHP6NnZC_l2i--66" value="" style="endArrow=none;html=1;rounded=0;exitX=0.5;exitY=0;exitDx=0;exitDy=0;startArrow=ERzeroToMany;startFill=0;entryX=0.5;entryY=1;entryDx=0;entryDy=0;" edge="1" parent="1" source="IiAVttIHHP6NnZC_l2i--5" target="IiAVttIHHP6NnZC_l2i--40">
          <mxGeometry width="50" height="50" relative="1" as="geometry">
            <mxPoint x="230" y="310" as="sourcePoint" />
            <mxPoint x="550" y="310" as="targetPoint" />
            <Array as="points" />
          </mxGeometry>
        </mxCell>
        <mxCell id="IiAVttIHHP6NnZC_l2i--67" value="" style="endArrow=ERzeroToMany;html=1;rounded=0;exitX=0.5;exitY=0;exitDx=0;exitDy=0;endFill=0;entryX=0;entryY=0.5;entryDx=0;entryDy=0;" edge="1" parent="1" source="IiAVttIHHP6NnZC_l2i--37" target="IiAVttIHHP6NnZC_l2i--5">
          <mxGeometry width="50" height="50" relative="1" as="geometry">
            <mxPoint x="230" y="310" as="sourcePoint" />
            <mxPoint x="380" y="385" as="targetPoint" />
            <Array as="points">
              <mxPoint x="320" y="380" />
            </Array>
          </mxGeometry>
        </mxCell>
        <mxCell id="IiAVttIHHP6NnZC_l2i--68" value="" style="endArrow=ERmany;html=1;rounded=0;entryX=1;entryY=0.5;entryDx=0;entryDy=0;exitX=0.5;exitY=0;exitDx=0;exitDy=0;endFill=0;" edge="1" parent="1" source="IiAVttIHHP6NnZC_l2i--38" target="IiAVttIHHP6NnZC_l2i--5">
          <mxGeometry width="50" height="50" relative="1" as="geometry">
            <mxPoint x="357" y="461" as="sourcePoint" />
            <mxPoint x="398" y="410" as="targetPoint" />
            <Array as="points">
              <mxPoint x="520" y="385" />
            </Array>
          </mxGeometry>
        </mxCell>
        <mxCell id="IiAVttIHHP6NnZC_l2i--69" value="" style="endArrow=none;html=1;rounded=0;exitX=0.75;exitY=0;exitDx=0;exitDy=0;entryX=0.5;entryY=1;entryDx=0;entryDy=0;" edge="1" parent="1" source="IiAVttIHHP6NnZC_l2i--4" target="IiAVttIHHP6NnZC_l2i--14">
          <mxGeometry width="50" height="50" relative="1" as="geometry">
            <mxPoint x="230" y="667.5" as="sourcePoint" />
            <mxPoint x="280" y="617.5" as="targetPoint" />
          </mxGeometry>
        </mxCell>
        <mxCell id="IiAVttIHHP6NnZC_l2i--70" value="" style="endArrow=none;html=1;rounded=0;exitX=0;exitY=0.5;exitDx=0;exitDy=0;entryX=1;entryY=0.5;entryDx=0;entryDy=0;" edge="1" parent="1" source="IiAVttIHHP6NnZC_l2i--4" target="IiAVttIHHP6NnZC_l2i--12">
          <mxGeometry width="50" height="50" relative="1" as="geometry">
            <mxPoint x="265" y="697.5" as="sourcePoint" />
            <mxPoint x="300" y="607.5" as="targetPoint" />
          </mxGeometry>
        </mxCell>
        <mxCell id="IiAVttIHHP6NnZC_l2i--71" value="" style="endArrow=none;html=1;rounded=0;exitX=0;exitY=1;exitDx=0;exitDy=0;entryX=1;entryY=0;entryDx=0;entryDy=0;" edge="1" parent="1" source="IiAVttIHHP6NnZC_l2i--4" target="IiAVttIHHP6NnZC_l2i--11">
          <mxGeometry width="50" height="50" relative="1" as="geometry">
            <mxPoint x="275" y="707.5" as="sourcePoint" />
            <mxPoint x="310" y="617.5" as="targetPoint" />
          </mxGeometry>
        </mxCell>
        <mxCell id="IiAVttIHHP6NnZC_l2i--72" value="" style="endArrow=none;html=1;rounded=0;exitX=0;exitY=0.25;exitDx=0;exitDy=0;entryX=1;entryY=1;entryDx=0;entryDy=0;" edge="1" parent="1" source="IiAVttIHHP6NnZC_l2i--4" target="IiAVttIHHP6NnZC_l2i--7">
          <mxGeometry width="50" height="50" relative="1" as="geometry">
            <mxPoint x="285" y="717.5" as="sourcePoint" />
            <mxPoint x="320" y="627.5" as="targetPoint" />
          </mxGeometry>
        </mxCell>
        <mxCell id="IiAVttIHHP6NnZC_l2i--73" value="" style="endArrow=none;html=1;rounded=0;exitX=0.364;exitY=0.06;exitDx=0;exitDy=0;entryX=0.708;entryY=1.028;entryDx=0;entryDy=0;exitPerimeter=0;entryPerimeter=0;" edge="1" parent="1" source="IiAVttIHHP6NnZC_l2i--4" target="IiAVttIHHP6NnZC_l2i--10">
          <mxGeometry width="50" height="50" relative="1" as="geometry">
            <mxPoint x="295" y="727.5" as="sourcePoint" />
            <mxPoint x="330" y="637.5" as="targetPoint" />
          </mxGeometry>
        </mxCell>
        <mxCell id="IiAVttIHHP6NnZC_l2i--74" value="" style="endArrow=none;html=1;rounded=0;exitX=0.25;exitY=1;exitDx=0;exitDy=0;entryX=0.5;entryY=0;entryDx=0;entryDy=0;" edge="1" parent="1" source="IiAVttIHHP6NnZC_l2i--4" target="IiAVttIHHP6NnZC_l2i--8">
          <mxGeometry width="50" height="50" relative="1" as="geometry">
            <mxPoint x="305" y="737.5" as="sourcePoint" />
            <mxPoint x="340" y="647.5" as="targetPoint" />
          </mxGeometry>
        </mxCell>
        <mxCell id="IiAVttIHHP6NnZC_l2i--75" value="" style="endArrow=none;html=1;rounded=0;" edge="1" parent="1" source="IiAVttIHHP6NnZC_l2i--4" target="IiAVttIHHP6NnZC_l2i--9">
          <mxGeometry width="50" height="50" relative="1" as="geometry">
            <mxPoint x="315" y="747.5" as="sourcePoint" />
            <mxPoint x="300" y="848" as="targetPoint" />
          </mxGeometry>
        </mxCell>
        <mxCell id="IiAVttIHHP6NnZC_l2i--76" value="" style="endArrow=none;html=1;rounded=0;exitX=0.852;exitY=1.047;exitDx=0;exitDy=0;entryX=0.39;entryY=0.028;entryDx=0;entryDy=0;exitPerimeter=0;entryPerimeter=0;" edge="1" parent="1" source="IiAVttIHHP6NnZC_l2i--4" target="IiAVttIHHP6NnZC_l2i--15">
          <mxGeometry width="50" height="50" relative="1" as="geometry">
            <mxPoint x="325" y="757.5" as="sourcePoint" />
            <mxPoint x="368.4279999999999" y="792.5" as="targetPoint" />
          </mxGeometry>
        </mxCell>
        <mxCell id="IiAVttIHHP6NnZC_l2i--77" value="" style="endArrow=none;html=1;rounded=0;exitX=0.1;exitY=-0.02;exitDx=0;exitDy=0;entryX=0.5;entryY=1;entryDx=0;entryDy=0;exitPerimeter=0;" edge="1" parent="1" source="IiAVttIHHP6NnZC_l2i--3" target="IiAVttIHHP6NnZC_l2i--19">
          <mxGeometry width="50" height="50" relative="1" as="geometry">
            <mxPoint x="265" y="660" as="sourcePoint" />
            <mxPoint x="300" y="570" as="targetPoint" />
          </mxGeometry>
        </mxCell>
        <mxCell id="IiAVttIHHP6NnZC_l2i--78" value="" style="endArrow=none;html=1;rounded=0;entryX=0.284;entryY=1.02;entryDx=0;entryDy=0;entryPerimeter=0;exitX=0.5;exitY=0;exitDx=0;exitDy=0;" edge="1" parent="1" source="IiAVttIHHP6NnZC_l2i--3" target="IiAVttIHHP6NnZC_l2i--20">
          <mxGeometry width="50" height="50" relative="1" as="geometry">
            <mxPoint x="580" y="660" as="sourcePoint" />
            <mxPoint x="550" y="570" as="targetPoint" />
          </mxGeometry>
        </mxCell>
        <mxCell id="IiAVttIHHP6NnZC_l2i--79" value="" style="endArrow=none;html=1;rounded=0;exitX=1;exitY=0;exitDx=0;exitDy=0;entryX=0.064;entryY=0.776;entryDx=0;entryDy=0;entryPerimeter=0;" edge="1" parent="1" source="IiAVttIHHP6NnZC_l2i--3" target="IiAVttIHHP6NnZC_l2i--18">
          <mxGeometry width="50" height="50" relative="1" as="geometry">
            <mxPoint x="590" y="669" as="sourcePoint" />
            <mxPoint x="560" y="580" as="targetPoint" />
          </mxGeometry>
        </mxCell>
        <mxCell id="IiAVttIHHP6NnZC_l2i--80" value="" style="endArrow=none;html=1;rounded=0;entryX=0.3;entryY=0;entryDx=0;entryDy=0;entryPerimeter=0;exitX=0.684;exitY=1.02;exitDx=0;exitDy=0;exitPerimeter=0;" edge="1" parent="1" source="IiAVttIHHP6NnZC_l2i--3" target="IiAVttIHHP6NnZC_l2i--21">
          <mxGeometry width="50" height="50" relative="1" as="geometry">
            <mxPoint x="630" y="690" as="sourcePoint" />
            <mxPoint x="570" y="590" as="targetPoint" />
          </mxGeometry>
        </mxCell>
        <mxCell id="IiAVttIHHP6NnZC_l2i--81" value="" style="endArrow=none;html=1;rounded=0;entryX=0;entryY=0;entryDx=0;entryDy=0;" edge="1" parent="1" target="IiAVttIHHP6NnZC_l2i--16">
          <mxGeometry width="50" height="50" relative="1" as="geometry">
            <mxPoint x="650" y="680" as="sourcePoint" />
            <mxPoint x="580" y="600" as="targetPoint" />
          </mxGeometry>
        </mxCell>
        <mxCell id="IiAVttIHHP6NnZC_l2i--82" value="" style="endArrow=none;html=1;rounded=0;exitX=0.596;exitY=1.047;exitDx=0;exitDy=0;exitPerimeter=0;" edge="1" parent="1" source="IiAVttIHHP6NnZC_l2i--3" target="IiAVttIHHP6NnZC_l2i--22">
          <mxGeometry width="50" height="50" relative="1" as="geometry">
            <mxPoint x="620" y="699" as="sourcePoint" />
            <mxPoint x="590" y="610" as="targetPoint" />
          </mxGeometry>
        </mxCell>
        <mxCell id="IiAVttIHHP6NnZC_l2i--83" value="" style="endArrow=none;html=1;rounded=0;exitX=1;exitY=0.75;exitDx=0;exitDy=0;entryX=0;entryY=0.5;entryDx=0;entryDy=0;" edge="1" parent="1" source="IiAVttIHHP6NnZC_l2i--3" target="IiAVttIHHP6NnZC_l2i--17">
          <mxGeometry width="50" height="50" relative="1" as="geometry">
            <mxPoint x="659" y="694" as="sourcePoint" />
            <mxPoint x="725" y="757" as="targetPoint" />
          </mxGeometry>
        </mxCell>
        <mxCell id="IiAVttIHHP6NnZC_l2i--84" value="" style="endArrow=none;html=1;rounded=0;entryX=1;entryY=0.5;entryDx=0;entryDy=0;exitX=1;exitY=0.5;exitDx=0;exitDy=0;startArrow=ERmandOne;startFill=0;" edge="1" parent="1" source="IiAVttIHHP6NnZC_l2i--4" target="IiAVttIHHP6NnZC_l2i--37">
          <mxGeometry width="50" height="50" relative="1" as="geometry">
            <mxPoint x="380" y="677.5" as="sourcePoint" />
            <mxPoint x="376" y="500" as="targetPoint" />
            <Array as="points">
              <mxPoint x="376" y="703" />
            </Array>
          </mxGeometry>
        </mxCell>
        <mxCell id="IiAVttIHHP6NnZC_l2i--85" value="" style="endArrow=none;html=1;rounded=0;entryX=0;entryY=0.5;entryDx=0;entryDy=0;exitX=0;exitY=0.5;exitDx=0;exitDy=0;startArrow=ERmandOne;startFill=0;" edge="1" parent="1" source="IiAVttIHHP6NnZC_l2i--3" target="IiAVttIHHP6NnZC_l2i--38">
          <mxGeometry width="50" height="50" relative="1" as="geometry">
            <mxPoint x="390" y="630" as="sourcePoint" />
            <mxPoint x="440" y="580" as="targetPoint" />
            <Array as="points">
              <mxPoint x="460" y="665" />
            </Array>
          </mxGeometry>
        </mxCell>
      </root>
    </mxGraphModel>
  </diagram>
</mxfile>
